<svg width="42" height="42" viewBox="0 0 42 42" fill="none" xmlns="http://www.w3.org/2000/svg">
<path d="M20.9134 7.38315C14.3988 7.42901 8.96091 12.884 8.96173 19.4226C8.96222 23.0474 10.573 26.4441 13.3811 28.7419C13.9499 29.2073 14.3023 29.8579 14.3738 30.557C14.3386 30.7667 14.3628 30.5249 14.3554 35.7656C14.3554 36.4452 14.9064 36.9961 15.5859 36.9961H16.0371V37.0371C16.0371 39.7737 18.2634 42 21 42C23.7365 42 25.9629 39.7737 25.9629 37.0371V36.9961H26.414C27.0936 36.9961 27.6445 36.4452 27.6445 35.7656C27.6364 30.5457 27.6637 30.7543 27.6228 30.5349C27.6823 29.8541 28.0077 29.2339 28.5373 28.8081C31.3978 26.5087 33.0382 23.0872 33.0382 19.421C33.0382 12.7217 27.5873 7.33369 20.9134 7.38315ZM25.1836 31.9922V34.5352H16.8164V31.9922H25.1836ZM23.5019 37.0371C23.5019 38.4167 22.3796 39.5391 21 39.5391C19.6204 39.5391 18.498 38.4167 18.498 37.0371V36.9961H23.5019V37.0371ZM26.9954 26.89C26.1484 27.5709 25.5642 28.4972 25.3042 29.5313H16.6805C16.4066 28.4897 15.8058 27.5463 14.9395 26.8373C12.7049 25.0087 11.4231 22.3061 11.4227 19.4223C11.422 14.2666 15.7761 9.88026 20.9307 9.84401C20.954 9.84384 20.9771 9.84376 21.0003 9.84376C26.2912 9.84376 30.5773 14.1249 30.5773 19.421C30.5772 22.3378 29.2717 25.0601 26.9954 26.89Z" fill="white"/>
<path d="M25.0035 16.9106L22.2305 19.0622V17.8828C22.2305 16.861 21.0526 16.2845 20.2457 16.9106L15.4879 20.6021C14.951 21.0186 14.8534 21.7916 15.27 22.3285C15.6872 22.8662 16.4603 22.9624 16.9965 22.5464L19.7695 20.3948V21.5742C19.7695 22.5959 20.9474 23.1726 21.7543 22.5464L26.5121 18.855C27.049 18.4384 27.1466 17.6654 26.73 17.1285C26.3134 16.5916 25.5405 16.4941 25.0035 16.9106Z" fill="white"/>
<path d="M21 5.00391C21.6795 5.00391 22.2305 4.45298 22.2305 3.77344V1.23047C22.2305 0.550922 21.6795 0 21 0C20.3205 0 19.7695 0.550922 19.7695 1.23047V3.77344C19.7695 4.45298 20.3205 5.00391 21 5.00391Z" fill="white"/>
<path d="M9.02193 9.24448C9.50239 9.72502 10.2815 9.7251 10.7621 9.24448C11.2426 8.76394 11.2426 7.98489 10.7621 7.50435L8.96394 5.70623C8.48348 5.22569 7.70435 5.22569 7.22381 5.70623C6.74327 6.18677 6.74327 6.96582 7.22381 7.44636L9.02193 9.24448Z" fill="white"/>
<path d="M6.52148 19.4824C6.52148 18.8029 5.97056 18.252 5.29102 18.252H2.74805C2.0685 18.252 1.51758 18.8029 1.51758 19.4824C1.51758 20.162 2.0685 20.7129 2.74805 20.7129H5.29102C5.97056 20.7129 6.52148 20.162 6.52148 19.4824Z" fill="white"/>
<path d="M39.252 18.252H36.709C36.0294 18.252 35.4785 18.8029 35.4785 19.4824C35.4785 20.162 36.0294 20.7129 36.709 20.7129H39.252C39.9315 20.7129 40.4824 20.162 40.4824 19.4824C40.4824 18.8029 39.9315 18.252 39.252 18.252Z" fill="white"/>
<path d="M38.3334 25.3303L35.9841 24.3572C35.3563 24.0971 34.6364 24.3953 34.3763 25.0231C34.1163 25.651 34.4144 26.3707 35.0423 26.6309L37.3916 27.604C38.0219 27.8651 38.7402 27.5635 38.9994 26.9381C39.2594 26.3101 38.9613 25.5904 38.3334 25.3303Z" fill="white"/>
<path d="M13.8516 5.44008C14.1113 6.06696 14.8306 6.36646 15.4594 6.10601C16.0872 5.84597 16.3853 5.12614 16.1253 4.49828L15.1522 2.1489C14.892 1.52112 14.1723 1.22302 13.5444 1.48297C12.9166 1.74301 12.6185 2.46284 12.8785 3.0907L13.8516 5.44008Z" fill="white"/>
<path d="M6.95764 12.3341L4.60827 11.3609C3.9804 11.1008 3.26066 11.399 3.00054 12.0269C2.7405 12.6547 3.0386 13.3745 3.66646 13.6346L6.01584 14.6077C6.64609 14.8688 7.36443 14.5672 7.62357 13.9418C7.88361 13.3139 7.58551 12.5941 6.95764 12.3341Z" fill="white"/>
<path d="M32.978 9.24448L34.7762 7.44636C35.2567 6.96582 35.2567 6.18677 34.7762 5.70623C34.2957 5.22569 33.5166 5.22569 33.036 5.70623L31.2379 7.50435C30.7574 7.98489 30.7574 8.76394 31.2379 9.24448C31.7183 9.72502 32.4975 9.7251 32.978 9.24448Z" fill="white"/>
<path d="M26.5406 6.10608C27.171 6.3671 27.8892 6.06556 28.1484 5.44015L29.1215 3.09078C29.3815 2.46291 29.0834 1.74317 28.4556 1.48304C27.8277 1.22309 27.108 1.52111 26.8478 2.14897L25.8747 4.49835C25.6147 5.12622 25.9128 5.84596 26.5406 6.10608Z" fill="white"/>
<path d="M6.0159 24.3572L3.66653 25.3304C3.03866 25.5904 2.74056 26.3102 3.0006 26.9381C3.26023 27.5649 3.97956 27.8646 4.60833 27.604L6.9577 26.6309C7.58557 26.3709 7.88367 25.651 7.62363 25.0232C7.36351 24.3953 6.64385 24.097 6.0159 24.3572Z" fill="white"/>
<path d="M34.3763 13.9418C34.636 14.5686 35.3553 14.8682 35.9841 14.6077L38.3335 13.6346C38.9613 13.3745 39.2594 12.6547 38.9994 12.0269C38.7393 11.399 38.0196 11.1008 37.3916 11.3609L35.0423 12.3341C34.4145 12.5941 34.1164 13.3139 34.3763 13.9418Z" fill="white"/>
</svg>
