<svg width="28" height="28" viewBox="0 0 28 28" fill="none" xmlns="http://www.w3.org/2000/svg">
<g clip-path="url(#clip0_2027_1465)">
<path d="M27.7823 1.11017C27.7043 0.654278 27.3456 0.295624 26.8897 0.217637C26.1176 0.0855617 24.0592 -0.181651 21.6281 0.187558C18.5944 0.648317 16.0324 1.90585 14.013 3.9252L12.7296 5.20855C10.842 5.15085 8.98312 5.43688 7.20079 6.06203C5.43848 6.68019 3.81945 7.60658 2.38883 8.81543C2.15618 9.01204 2.01546 9.29938 2.00266 9.60384C1.98987 9.90889 2.10635 10.2077 2.32232 10.4236L4.91843 13.0197L4.53085 13.4073C4.10438 13.8338 4.10438 14.5277 4.53085 14.9542L5.74922 16.1725C4.76525 16.2904 3.81945 16.6723 3.03269 17.2864C2.78779 17.4771 2.63619 17.7649 2.61683 18.0757C2.5973 18.3892 2.71335 18.6965 2.93561 18.9193L4.46123 20.445C4.56804 20.5518 4.70799 20.6052 4.84794 20.6052C4.98789 20.6052 5.1279 20.5518 5.23465 20.445C5.44821 20.2314 5.44827 19.8851 5.2347 19.6715L3.71018 18.1451C4.5886 17.4615 5.71439 17.1399 6.82519 17.2484L10.7515 21.1747C10.8601 22.2857 10.5383 23.4118 9.85406 24.2908L8.32849 22.7652C8.11493 22.5517 7.76863 22.5517 7.55502 22.7652C7.34145 22.9788 7.34145 23.3251 7.55502 23.5387L9.08107 25.0647C9.28731 25.2705 9.5665 25.3852 9.85597 25.3852C9.87867 25.3852 9.90147 25.3844 9.92428 25.383C10.2351 25.3636 10.5228 25.2121 10.7133 24.9675C11.3276 24.1805 11.7095 23.2345 11.8274 22.2505L13.0458 23.469C13.2591 23.6823 13.5391 23.7888 13.8193 23.7888C14.0994 23.7888 14.3795 23.6822 14.5927 23.469L14.9803 23.0814L17.5764 25.6775C17.7816 25.8827 18.0616 25.9981 18.3507 25.9981C18.3658 25.9981 18.381 25.9977 18.3962 25.9971C18.7006 25.9843 18.988 25.8436 19.1846 25.611C20.3934 24.1805 21.3198 22.5615 21.938 20.7991C22.5632 19.0168 22.8494 17.158 22.7916 15.2702L24.0749 13.9869C26.0942 11.9675 27.3518 9.40542 27.8125 6.37185C28.1816 3.94063 27.9143 1.88228 27.7823 1.11017ZM26.7042 1.29458C26.876 2.29961 27.1603 4.76091 26.4837 7.49523L20.5046 1.51613C23.2388 0.839347 25.6997 1.1234 26.7042 1.29458ZM3.09476 9.65092C4.42333 8.52831 5.92658 7.6681 7.56284 7.09419C8.88069 6.6319 10.2438 6.3695 11.6296 6.30857L5.69174 12.2464L3.09476 9.65092ZM13.8192 22.6956L5.30427 14.1807L6.85291 12.6321L15.3678 21.147L13.8192 22.6956ZM20.9057 20.437C20.3317 22.0734 19.4715 23.5766 18.3497 24.9041L15.7536 22.308L21.6914 16.3702C21.6306 17.756 21.368 19.1192 20.9057 20.437ZM23.3012 13.2135L16.1412 20.3735L7.62633 11.8587L14.7864 4.69862C16.1927 3.29228 17.7682 2.41052 19.3121 1.87057L26.1292 8.68773C25.5893 10.2316 24.7076 11.8071 23.3012 13.2135Z" fill="#BFBFBF"/>
<path d="M17.3024 6.59589C16.2068 6.59589 15.1768 7.02257 14.4021 7.79731C12.8028 9.39654 12.8028 11.9987 14.4021 13.598C15.2017 14.3976 16.2521 14.7975 17.3024 14.7975C18.3528 14.7975 19.4031 14.3977 20.2028 13.598C20.9775 12.8233 21.4042 11.7933 21.4042 10.6977C21.4042 9.60206 20.9775 8.57204 20.2028 7.79731C19.428 7.02252 18.398 6.59589 17.3024 6.59589ZM19.4293 12.8245C18.8429 13.411 18.0728 13.7042 17.3024 13.7041C16.5323 13.704 15.7618 13.4109 15.1755 12.8245C14.0027 11.6518 14.0027 9.74343 15.1755 8.57072C15.7436 8.00256 16.499 7.68968 17.3024 7.68968C18.1059 7.68968 18.8612 8.00261 19.4293 8.57072C19.9975 9.13884 20.3104 9.89416 20.3104 10.6977C20.3104 11.501 19.9975 12.2564 19.4293 12.8245Z" fill="#BFBFBF"/>
<path d="M4.84818 23.1518C4.63462 22.9384 4.28832 22.9383 4.07476 23.1518L0.160192 27.0663C-0.0533701 27.2799 -0.0534248 27.6262 0.160192 27.8398C0.267001 27.9465 0.406952 28 0.546902 28C0.686853 28 0.826858 27.9465 0.933612 27.8398L4.84818 23.9253C5.06174 23.7117 5.06174 23.3654 4.84818 23.1518Z" fill="#BFBFBF"/>
<path d="M0.546902 24.1328C0.686853 24.1328 0.826858 24.0794 0.933612 23.9726L2.91458 21.9917C3.12814 21.7781 3.12819 21.4318 2.91458 21.2182C2.70101 21.0047 2.35472 21.0047 2.14116 21.2182L0.160192 23.1991C-0.0533701 23.4127 -0.0534248 23.759 0.160192 23.9726C0.267001 24.0794 0.406897 24.1328 0.546902 24.1328Z" fill="#BFBFBF"/>
<path d="M6.00827 25.0854L4.02736 27.0663C3.8138 27.2799 3.8138 27.6262 4.02736 27.8398C4.13417 27.9465 4.27412 28 4.41407 28C4.55402 28 4.69402 27.9465 4.80078 27.8398L6.78174 25.8588C6.99531 25.6453 6.99531 25.299 6.78174 25.0854C6.56818 24.8718 6.22189 24.8718 6.00827 25.0854Z" fill="#BFBFBF"/>
<path d="M6.39478 22.152C6.69681 22.152 6.94165 21.9071 6.94165 21.6051C6.94165 21.3031 6.69681 21.0582 6.39478 21.0582C6.09274 21.0582 5.8479 21.3031 5.8479 21.6051C5.8479 21.9071 6.09274 22.152 6.39478 22.152Z" fill="#BFBFBF"/>
</g>
<defs>
<clipPath id="clip0_2027_1465">
<rect width="28" height="28" fill="white"/>
</clipPath>
</defs>
</svg>
