<svg width="42" height="42" viewBox="0 0 42 42" fill="none" xmlns="http://www.w3.org/2000/svg">
<g clip-path="url(#clip0_16_36)">
<path d="M41.6787 1.30727C41.5843 0.81262 41.193 0.42453 40.6986 0.328964C34.8081 -0.80922 28.7589 1.04493 24.5167 5.28882L20.6187 9.18842L15.1526 8.09183C13.1299 7.68585 11.0513 8.31495 9.59235 9.77437C8.97088 10.3961 6.0098 13.3584 5.36569 14.0028C4.88531 14.4835 4.88548 15.2624 5.36602 15.7428C5.84656 16.2232 6.62544 16.2231 7.10598 15.7425L8.84603 14.0017L14.3789 19.5368L13.0898 23.476L8.45679 25.021C7.59095 25.3098 7.32952 26.4115 7.97584 27.0579L11.0528 30.1362C8.48468 27.9764 4.71805 28.1811 2.28017 30.62C0.249236 32.6519 -0.05633 38.1359 0.00757239 40.7926C0.0233224 41.4489 0.551604 41.9772 1.20794 41.993C3.94368 42.0546 9.35872 41.7387 11.3771 39.7193C13.807 37.2884 14.0263 33.5218 11.8605 30.9443L14.9363 34.0212C15.5819 34.6669 16.6847 34.4079 16.9737 33.5403L18.5187 28.9033L22.4442 27.6055L27.9878 33.1514L26.2471 34.8928C25.7667 35.3735 25.7669 36.1524 26.2474 36.6328C26.7279 37.1132 27.5068 37.1131 27.9874 36.6325C28.1812 36.4385 32.0213 32.5969 32.2267 32.3913C33.6754 30.942 34.3066 28.8758 33.9152 26.8641L32.8392 21.3335L36.7138 17.4573C40.945 13.2244 42.801 7.18702 41.6787 1.30727ZM9.63681 37.9797C8.61774 38.9993 5.1716 39.4655 2.46949 39.5311C2.53512 36.8275 3.0013 33.3793 4.02046 32.3596C5.62876 30.7506 8.13359 30.6594 9.73484 32.2615C11.31 33.8372 11.2669 36.349 9.63681 37.9797ZM39.3983 2.60746C39.8085 5.64123 39.3136 8.68992 38.0257 11.395L36.76 10.1287C37.3907 8.76366 37.1444 7.08965 36.021 5.96574C34.8823 4.82657 33.2062 4.59943 31.8583 5.225L30.5985 3.96475C33.3071 2.67891 36.3592 2.18919 39.3983 2.60746ZM32.5408 7.70546C33.0215 7.22451 33.7998 7.22426 34.2807 7.70546C34.7608 8.18575 34.7608 8.96718 34.2807 9.44748C33.8 9.92842 33.0218 9.92867 32.5408 9.44748C32.0607 8.96718 32.0607 8.18575 32.5408 7.70546ZM14.6685 10.5044L18.5291 11.279L14.0663 15.7435L10.5856 12.2613C10.9432 12.012 12.204 10.0096 14.6685 10.5044ZM15.806 17.4838L17.5466 15.7425L26.2477 24.4472L24.5071 26.1886L15.806 17.4838ZM15.2687 30.8732L11.123 26.7258L13.7339 25.855L16.139 28.2612L15.2687 30.8732ZM17.8805 26.5227L15.4707 24.1117L16.3293 21.488L20.4972 25.6576L17.8805 26.5227ZM31.4999 27.3341C31.7349 28.5417 31.3561 29.782 30.4865 30.6518L29.7275 31.4112L26.2467 27.929L30.7409 23.4329L31.4999 27.3341ZM27.9874 22.7069L19.2862 14.0021C26.5384 6.78704 26.673 6.4375 28.3952 5.24124L30.0996 6.94634C29.4226 8.32529 29.6555 10.0418 30.8004 11.1871C31.9641 12.3514 33.683 12.5602 35.0412 11.89L36.7473 13.5968C35.4183 15.5065 34.7125 15.8823 27.9874 22.7069Z" fill="white"/>
<path d="M2.11764 20.7327L3.62571 19.224C4.10608 18.7434 4.10592 17.9644 3.62538 17.4841C3.14476 17.0036 2.36579 17.0037 1.88541 17.4844L0.377269 18.9931C-0.103106 19.4737 -0.102942 20.2527 0.377597 20.7331C0.858054 21.2133 1.6371 21.2135 2.11764 20.7327Z" fill="white"/>
<path d="M22.7669 38.3748L21.2589 39.8835C20.7785 40.3641 20.7786 41.1431 21.2592 41.6234C21.7396 42.1037 22.5186 42.1039 22.9992 41.6231L24.5072 40.1144C24.9876 39.6338 24.9874 38.8548 24.5069 38.3744C24.0263 37.894 23.2473 37.8941 22.7669 38.3748Z" fill="white"/>
</g>
<defs>
<clipPath id="clip0_16_36">
<rect width="42" height="42" fill="white"/>
</clipPath>
</defs>
</svg>
