<svg width="42" height="42" viewBox="0 0 42 42" fill="none" xmlns="http://www.w3.org/2000/svg">
<path d="M35.8477 19.6465H35.2008C37.6207 19.3385 39.498 17.2678 39.498 14.7656C39.498 12.0517 37.2901 9.84375 34.5762 9.84375C31.8622 9.84375 29.6543 12.0517 29.6543 14.7656C29.6543 17.2678 31.5317 19.3385 33.9516 19.6465H33.3047C31.9207 19.6465 30.6423 20.1061 29.6133 20.8803V20.877C29.6133 17.4846 26.8533 14.7246 23.4609 14.7246H21.9972C24.9169 14.2465 27.1523 11.7072 27.1523 8.6543C27.1523 5.26189 24.3924 2.50195 21 2.50195C17.6076 2.50195 14.8477 5.26189 14.8477 8.6543C14.8477 11.7072 17.0831 14.2465 20.0028 14.7246H18.5391C15.1467 14.7246 12.3867 17.4846 12.3867 20.877V20.8803C11.3577 20.1061 10.0793 19.6465 8.69531 19.6465H8.04841C10.4683 19.3385 12.3457 17.2678 12.3457 14.7656C12.3457 12.0517 10.1377 9.84375 7.42383 9.84375C4.70991 9.84375 2.50195 12.0517 2.50195 14.7656C2.50195 17.2678 4.37932 19.3385 6.79924 19.6465H6.15234C2.75994 19.6465 0 22.4064 0 25.7988V38.2676C0 38.9471 0.550922 39.498 1.23047 39.498H40.7695C41.4491 39.498 42 38.9471 42 38.2676V25.7988C42 22.4064 39.2401 19.6465 35.8477 19.6465ZM32.1152 14.7656C32.1152 13.4087 33.2192 12.3047 34.5762 12.3047C35.9331 12.3047 37.0371 13.4087 37.0371 14.7656C37.0371 16.1226 35.9331 17.2266 34.5762 17.2266C33.2192 17.2266 32.1152 16.1226 32.1152 14.7656ZM17.3086 8.6543C17.3086 6.61886 18.9646 4.96289 21 4.96289C23.0354 4.96289 24.6914 6.61886 24.6914 8.6543C24.6914 10.6897 23.0354 12.3457 21 12.3457C18.9646 12.3457 17.3086 10.6897 17.3086 8.6543ZM4.96289 14.7656C4.96289 13.4087 6.06687 12.3047 7.42383 12.3047C8.78079 12.3047 9.88477 13.4087 9.88477 14.7656C9.88477 16.1226 8.78079 17.2266 7.42383 17.2266C6.06687 17.2266 4.96289 16.1226 4.96289 14.7656ZM22.0613 24.1801L21 25.3122L19.9387 24.18L21 21.0022L22.0613 24.1801ZM2.46094 25.7988C2.46094 23.7634 4.1169 22.1074 6.15234 22.1074H6.23438V28.3418C6.23438 29.0213 6.7853 29.5723 7.46484 29.5723C8.14439 29.5723 8.69531 29.0213 8.69531 28.3418V22.1074C10.7308 22.1074 12.3867 23.7634 12.3867 25.7988V37.0371H2.46094V25.7988ZM14.8477 25.7988V20.877C14.8477 18.8415 16.5036 17.1855 18.5391 17.1855H19.6801L17.3719 24.0965C17.2287 24.5254 17.3322 24.998 17.6413 25.3279L20.1022 27.9529C20.5884 28.4716 21.412 28.4709 21.8977 27.9529L24.3586 25.3279C24.6678 24.998 24.7712 24.5254 24.628 24.0965L22.3199 17.1855H23.4609C25.4964 17.1855 27.1523 18.8415 27.1523 20.877V25.7988V37.0371H14.8477V25.7988ZM39.5391 37.0371H29.6133V25.7988C29.6133 23.7634 31.2692 22.1074 33.3047 22.1074V28.3418C33.3047 29.0213 33.8556 29.5723 34.5352 29.5723C35.2147 29.5723 35.7656 29.0213 35.7656 28.3418V22.1074H35.8477C37.8831 22.1074 39.5391 23.7634 39.5391 25.7988V37.0371Z" fill="white"/>
</svg>
