<svg width="42" height="42" viewBox="0 0 42 42" fill="none" xmlns="http://www.w3.org/2000/svg">
<g clip-path="url(#clip0_16_19)">
<path d="M40.7695 0H1.23047C0.550922 0 0 0.550922 0 1.23047V40.7695C0 41.4491 0.550922 42 1.23047 42H40.7695C41.4491 42 42 41.4491 42 40.7695V1.23047C42 0.550922 41.4491 0 40.7695 0ZM39.5391 2.46094V9.92578H2.46094V2.46094H39.5391ZM2.46094 39.5391V12.3867H39.5391V39.5391H2.46094Z" fill="white"/>
<path d="M29.7363 17.3086H12.4277C9.73637 17.3086 7.54688 19.4981 7.54688 22.1895C7.54688 24.8808 9.73637 27.0703 12.4277 27.0703H23.3088V33.8574C23.3088 34.7254 24.181 35.3137 24.981 35.0058L27.2779 34.1225L28.0533 36.1387C28.2969 36.7722 29.0085 37.0897 29.6435 36.8454C30.2777 36.6014 30.5941 35.8896 30.3502 35.2552L29.5747 33.2391L31.8717 32.3556C32.6746 32.0467 32.9233 31.0251 32.3433 30.3826L29.353 27.0703H29.7363C32.4277 27.0703 34.6172 24.8808 34.6172 22.1895C34.6172 19.4981 32.4277 17.3086 29.7363 17.3086ZM29.316 30.7018L25.7697 32.0659V27.0703H26.0376L29.316 30.7018ZM29.7363 24.6094H27.1313L25.4525 22.7498C24.6991 21.9151 23.3087 22.4506 23.3087 23.5744V24.6094H12.4277C11.0933 24.6094 10.0078 23.5239 10.0078 22.1895C10.0078 20.8551 11.0933 19.7695 12.4277 19.7695H29.7363C31.0707 19.7695 32.1562 20.8551 32.1562 22.1895C32.1562 23.5239 31.0707 24.6094 29.7363 24.6094Z" fill="white"/>
<path d="M35.7656 7.46484C36.4452 7.46484 36.9961 6.91394 36.9961 6.23438C36.9961 5.55481 36.4452 5.00391 35.7656 5.00391C35.0861 5.00391 34.5352 5.55481 34.5352 6.23438C34.5352 6.91394 35.0861 7.46484 35.7656 7.46484Z" fill="white"/>
<path d="M30.8438 7.46484C31.5233 7.46484 32.0742 6.91394 32.0742 6.23438C32.0742 5.55481 31.5233 5.00391 30.8438 5.00391C30.1642 5.00391 29.6133 5.55481 29.6133 6.23438C29.6133 6.91394 30.1642 7.46484 30.8438 7.46484Z" fill="white"/>
<path d="M25.9219 7.46484C26.6014 7.46484 27.1523 6.91394 27.1523 6.23438C27.1523 5.55481 26.6014 5.00391 25.9219 5.00391C25.2423 5.00391 24.6914 5.55481 24.6914 6.23438C24.6914 6.91394 25.2423 7.46484 25.9219 7.46484Z" fill="white"/>
</g>
<defs>
<clipPath id="clip0_16_19">
<rect width="42" height="42" fill="white"/>
</clipPath>
</defs>
</svg>
